<svg width="320" height="180" viewBox="0 0 320 180" fill="none" xmlns="http://www.w3.org/2000/svg">
<rect width="320" height="180" fill="black" fill-opacity="0.6"/>
<g filter="url(#filter0_d_50_275)">
<path d="M165.2 66.6C165.2 65.1641 166.364 64 167.8 64H183.4C184.836 64 186 65.1641 186 66.6V82.2C186 83.6359 184.836 84.8 183.4 84.8C181.964 84.8 180.8 83.6359 180.8 82.2V72.877L156.638 97.0385C155.623 98.0538 153.977 98.0538 152.962 97.0385C151.946 96.0231 151.946 94.3769 152.962 93.3615L177.123 69.2H167.8C166.364 69.2 165.2 68.0359 165.2 66.6Z" fill="#FFB200"/>
<path d="M141.8 77C141.11 77 140.449 77.2739 139.962 77.7615C139.474 78.2491 139.2 78.9104 139.2 79.6V108.2C139.2 108.89 139.474 109.551 139.962 110.038C140.449 110.526 141.11 110.8 141.8 110.8H170.4C171.09 110.8 171.751 110.526 172.238 110.038C172.726 109.551 173 108.89 173 108.2V92.6C173 91.1641 174.164 90 175.6 90C177.036 90 178.2 91.1641 178.2 92.6V108.2C178.2 110.269 177.378 112.253 175.915 113.715C174.453 115.178 172.469 116 170.4 116H141.8C139.731 116 137.747 115.178 136.285 113.715C134.822 112.253 134 110.269 134 108.2V79.6C134 77.5313 134.822 75.5474 136.285 74.0846C137.747 72.6218 139.731 71.8 141.8 71.8H157.4C158.836 71.8 160 72.9641 160 74.4C160 75.8359 158.836 77 157.4 77H141.8Z" fill="#FFB200"/>
</g>
<defs>
<filter id="filter0_d_50_275" x="126" y="56" width="68" height="68" filterUnits="userSpaceOnUse" color-interpolation-filters="sRGB">
<feFlood flood-opacity="0" result="BackgroundImageFix"/>
<feColorMatrix in="SourceAlpha" type="matrix" values="0 0 0 0 0 0 0 0 0 0 0 0 0 0 0 0 0 0 127 0" result="hardAlpha"/>
<feOffset/>
<feGaussianBlur stdDeviation="4"/>
<feComposite in2="hardAlpha" operator="out"/>
<feColorMatrix type="matrix" values="0 0 0 0 1 0 0 0 0 0.698039 0 0 0 0 0 0 0 0 1 0"/>
<feBlend mode="normal" in2="BackgroundImageFix" result="effect1_dropShadow_50_275"/>
<feBlend mode="normal" in="SourceGraphic" in2="effect1_dropShadow_50_275" result="shape"/>
</filter>
</defs>
</svg>
