<svg width="320" height="180" viewBox="0 0 320 180" fill="none" xmlns="http://www.w3.org/2000/svg">
<path d="M164.2 71.1C164.2 69.9402 165.14 69 166.3 69H178.9C180.06 69 181 69.9402 181 71.1V83.7C181 84.8598 180.06 85.8 178.9 85.8C177.74 85.8 176.8 84.8598 176.8 83.7V76.1698L157.285 95.6849C156.465 96.505 155.135 96.505 154.315 95.6849C153.495 94.8648 153.495 93.5352 154.315 92.7151L173.83 73.2H166.3C165.14 73.2 164.2 72.2598 164.2 71.1Z" fill="#FFB200"/>
<path d="M145.3 79.5C144.743 79.5 144.209 79.7212 143.815 80.1151C143.421 80.5089 143.2 81.043 143.2 81.6V104.7C143.2 105.257 143.421 105.791 143.815 106.185C144.209 106.579 144.743 106.8 145.3 106.8H168.4C168.957 106.8 169.491 106.579 169.885 106.185C170.279 105.791 170.5 105.257 170.5 104.7V92.1C170.5 90.9402 171.44 90 172.6 90C173.76 90 174.7 90.9402 174.7 92.1V104.7C174.7 106.371 174.036 107.973 172.855 109.155C171.673 110.336 170.071 111 168.4 111H145.3C143.629 111 142.027 110.336 140.845 109.155C139.664 107.973 139 106.371 139 104.7V81.6C139 79.9291 139.664 78.3267 140.845 77.1452C142.027 75.9637 143.629 75.3 145.3 75.3H157.9C159.06 75.3 160 76.2402 160 77.4C160 78.5598 159.06 79.5 157.9 79.5H145.3Z" fill="#FFB200"/>
</svg>
