<svg width="320" height="180" viewBox="0 0 320 180" fill="none" xmlns="http://www.w3.org/2000/svg">
<path fill-rule="evenodd" clip-rule="evenodd" d="M157.241 80.7752C156.655 80.3846 155.902 80.3482 155.281 80.6804C154.66 81.0127 154.273 81.6596 154.273 82.3636V97.6364C154.273 98.3404 154.66 98.9873 155.281 99.3196C155.902 99.6518 156.655 99.6154 157.241 99.2248L168.695 91.5885C169.226 91.2344 169.545 90.6383 169.545 90C169.545 89.3617 169.226 88.7656 168.695 88.4115L157.241 80.7752ZM164.195 90L158.091 94.0692V85.9308L164.195 90Z" fill="#FFB200"/>
<path fill-rule="evenodd" clip-rule="evenodd" d="M160 69C148.402 69 139 78.402 139 90C139 101.598 148.402 111 160 111C171.598 111 181 101.598 181 90C181 78.402 171.598 69 160 69ZM142.818 90C142.818 80.5107 150.511 72.8182 160 72.8182C169.489 72.8182 177.182 80.5107 177.182 90C177.182 99.4893 169.489 107.182 160 107.182C150.511 107.182 142.818 99.4893 142.818 90Z" fill="#FFB200"/>
</svg>
