<svg width="320" height="180" viewBox="0 0 320 180" fill="none" xmlns="http://www.w3.org/2000/svg">
<rect width="320" height="180" fill="black" fill-opacity="0.6"/>
<g filter="url(#filter0_d_43_1268)">
<path fill-rule="evenodd" clip-rule="evenodd" d="M156.584 78.5788C155.859 78.0953 154.926 78.0502 154.157 78.4615C153.389 78.8728 152.909 79.6738 152.909 80.5455V99.4545C152.909 100.326 153.389 101.127 154.157 101.539C154.926 101.95 155.859 101.905 156.584 101.421L170.766 91.9667C171.423 91.5283 171.818 90.7903 171.818 90C171.818 89.2097 171.423 88.4717 170.766 88.0333L156.584 78.5788ZM165.193 90L157.636 95.038V84.9619L165.193 90Z" fill="#FFB200"/>
<path fill-rule="evenodd" clip-rule="evenodd" d="M160 64C145.641 64 134 75.6406 134 90C134 104.359 145.641 116 160 116C174.359 116 186 104.359 186 90C186 75.6406 174.359 64 160 64ZM138.727 90C138.727 78.2514 148.251 68.7273 160 68.7273C171.749 68.7273 181.273 78.2514 181.273 90C181.273 101.749 171.749 111.273 160 111.273C148.251 111.273 138.727 101.749 138.727 90Z" fill="#FFB200"/>
</g>
<defs>
<filter id="filter0_d_43_1268" x="126" y="56" width="68" height="68" filterUnits="userSpaceOnUse" color-interpolation-filters="sRGB">
<feFlood flood-opacity="0" result="BackgroundImageFix"/>
<feColorMatrix in="SourceAlpha" type="matrix" values="0 0 0 0 0 0 0 0 0 0 0 0 0 0 0 0 0 0 127 0" result="hardAlpha"/>
<feOffset/>
<feGaussianBlur stdDeviation="4"/>
<feComposite in2="hardAlpha" operator="out"/>
<feColorMatrix type="matrix" values="0 0 0 0 1 0 0 0 0 0.698039 0 0 0 0 0 0 0 0 1 0"/>
<feBlend mode="normal" in2="BackgroundImageFix" result="effect1_dropShadow_43_1268"/>
<feBlend mode="normal" in="SourceGraphic" in2="effect1_dropShadow_43_1268" result="shape"/>
</filter>
</defs>
</svg>
