<svg width="179" height="72" viewBox="0 0 179 72" fill="none" xmlns="http://www.w3.org/2000/svg">
<g filter="url(#filter0_di_28_54)">
<rect x="8" y="8" width="163" height="56" rx="12" fill="black"/>
<path d="M36.914 43.108L33.71 33.406C33.59 33.058 33.494 32.74 33.422 32.452C33.362 32.164 33.332 31.924 33.332 31.732C33.104 31.744 32.9 31.756 32.72 31.768C32.552 31.768 32.39 31.774 32.234 31.786V30.4H37.544V31.588C37.1 31.576 36.77 31.66 36.554 31.84C36.35 32.02 36.326 32.386 36.482 32.938C36.662 33.622 36.842 34.306 37.022 34.99C37.202 35.674 37.382 36.358 37.562 37.042C37.67 37.45 37.766 37.834 37.85 38.194C37.946 38.554 38.048 39.022 38.156 39.598H38.174C38.222 39.43 38.294 39.172 38.39 38.824C38.486 38.476 38.588 38.104 38.696 37.708C38.816 37.3 38.918 36.934 39.002 36.61C39.098 36.274 39.164 36.04 39.2 35.908C39.392 35.296 39.578 34.684 39.758 34.072C39.95 33.46 40.136 32.848 40.316 32.236C40.508 31.624 40.694 31.012 40.874 30.4H42.494C42.662 30.952 42.83 31.504 42.998 32.056C43.178 32.608 43.352 33.16 43.52 33.712C43.688 34.264 43.856 34.816 44.024 35.368C44.204 35.92 44.378 36.472 44.546 37.024C44.678 37.432 44.792 37.858 44.888 38.302C44.996 38.734 45.098 39.172 45.194 39.616H45.212C45.32 39.232 45.428 38.836 45.536 38.428C45.656 38.008 45.776 37.576 45.896 37.132C45.98 36.82 46.064 36.508 46.148 36.196C46.232 35.884 46.316 35.572 46.4 35.26C46.484 34.936 46.568 34.618 46.652 34.306C46.736 33.994 46.82 33.682 46.904 33.37C46.976 33.082 47.072 32.788 47.192 32.488C47.312 32.176 47.462 31.924 47.642 31.732C47.45 31.744 47.204 31.756 46.904 31.768C46.604 31.768 46.388 31.774 46.256 31.786V30.4H50.306V31.588C50.042 31.6 49.79 31.672 49.55 31.804C49.322 31.924 49.112 32.122 48.92 32.398C48.728 32.674 48.554 33.046 48.398 33.514C47.918 35.11 47.432 36.706 46.94 38.302C46.448 39.898 45.956 41.5 45.464 43.108H43.862L41.738 36.664C41.582 36.196 41.45 35.74 41.342 35.296C41.246 34.84 41.15 34.408 41.054 34C40.994 34.408 40.922 34.804 40.838 35.188C40.754 35.56 40.652 35.95 40.532 36.358L38.48 43.108H36.914ZM54.7576 43C54.7336 42.832 54.7156 42.694 54.7036 42.586C54.7036 42.466 54.6976 42.328 54.6856 42.172C54.2776 42.58 53.8456 42.868 53.3896 43.036C52.9336 43.204 52.4716 43.288 52.0036 43.288C51.2356 43.288 50.6356 43.06 50.2036 42.604C49.7716 42.148 49.5556 41.578 49.5556 40.894C49.5556 40.318 49.6996 39.826 49.9876 39.418C50.2876 39.01 50.6776 38.68 51.1576 38.428C51.6496 38.164 52.1896 37.966 52.7776 37.834C53.3776 37.69 53.9776 37.606 54.5776 37.582V36.646C54.5776 36.334 54.5356 36.052 54.4516 35.8C54.3796 35.548 54.2476 35.35 54.0556 35.206C53.8756 35.062 53.6176 34.996 53.2816 35.008C53.0536 35.02 52.8316 35.068 52.6156 35.152C52.3996 35.236 52.2136 35.356 52.0576 35.512C52.1536 35.62 52.2136 35.74 52.2376 35.872C52.2616 35.992 52.2736 36.1 52.2736 36.196C52.2736 36.436 52.1776 36.688 51.9856 36.952C51.7936 37.204 51.4876 37.324 51.0676 37.312C50.7076 37.3 50.4316 37.174 50.2396 36.934C50.0476 36.694 49.9516 36.412 49.9516 36.088C49.9516 35.608 50.1196 35.194 50.4556 34.846C50.8036 34.486 51.2656 34.21 51.8416 34.018C52.4176 33.814 53.0536 33.712 53.7496 33.712C54.8056 33.712 55.6216 33.988 56.1976 34.54C56.7856 35.08 57.0796 35.95 57.0796 37.15C57.0796 37.558 57.0796 37.906 57.0796 38.194C57.0796 38.482 57.0736 38.77 57.0616 39.058C57.0616 39.346 57.0616 39.694 57.0616 40.102C57.0616 40.27 57.0556 40.51 57.0436 40.822C57.0316 41.122 57.0136 41.41 56.9896 41.686C57.1936 41.662 57.4096 41.65 57.6376 41.65C57.8656 41.638 58.0396 41.632 58.1596 41.632V43H54.7576ZM54.5596 38.86C54.2236 38.896 53.9056 38.956 53.6056 39.04C53.3056 39.124 53.0416 39.238 52.8136 39.382C52.5976 39.526 52.4236 39.7 52.2916 39.904C52.1716 40.108 52.1116 40.336 52.1116 40.588C52.1236 40.924 52.2316 41.164 52.4356 41.308C52.6396 41.452 52.8736 41.524 53.1376 41.524C53.4136 41.524 53.6716 41.464 53.9116 41.344C54.1516 41.224 54.3676 41.068 54.5596 40.876C54.5596 40.756 54.5596 40.642 54.5596 40.534C54.5596 40.414 54.5596 40.294 54.5596 40.174C54.5596 39.958 54.5596 39.742 54.5596 39.526C54.5596 39.298 54.5596 39.076 54.5596 38.86ZM62.6868 43.288C62.3268 43.288 61.9788 43.246 61.6428 43.162C61.3068 43.078 61.0068 42.922 60.7428 42.694C60.4788 42.454 60.2688 42.106 60.1128 41.65C59.9568 41.194 59.8788 40.588 59.8788 39.832L59.9148 35.494H58.6908V34C59.0628 33.988 59.4228 33.862 59.7708 33.622C60.1188 33.382 60.4128 33.07 60.6528 32.686C60.9048 32.302 61.0728 31.9 61.1568 31.48H62.4888L62.4708 34H64.7568V35.386L62.4708 35.44L62.4528 39.868C62.4528 40.144 62.4768 40.42 62.5248 40.696C62.5848 40.96 62.6928 41.182 62.8488 41.362C63.0048 41.53 63.2328 41.614 63.5328 41.614C63.7008 41.614 63.9288 41.554 64.2168 41.434C64.5168 41.314 64.8348 41.014 65.1708 40.534L66.0348 41.344C65.7108 41.824 65.3748 42.196 65.0268 42.46C64.6788 42.724 64.3428 42.916 64.0188 43.036C63.7068 43.156 63.4308 43.228 63.1908 43.252C62.9508 43.276 62.7828 43.288 62.6868 43.288ZM70.8063 43.288C70.0023 43.288 69.2643 43.108 68.5923 42.748C67.9203 42.388 67.3803 41.866 66.9723 41.182C66.5763 40.498 66.3783 39.67 66.3783 38.698C66.3783 38.014 66.4923 37.372 66.7203 36.772C66.9483 36.172 67.2663 35.644 67.6743 35.188C68.0943 34.732 68.5863 34.372 69.1503 34.108C69.7263 33.844 70.3623 33.712 71.0583 33.712C71.8263 33.712 72.4623 33.832 72.9663 34.072C73.4823 34.3 73.8663 34.606 74.1183 34.99C74.3823 35.362 74.5143 35.758 74.5143 36.178C74.5143 36.526 74.4063 36.838 74.1903 37.114C73.9863 37.378 73.6923 37.516 73.3083 37.528C72.8523 37.54 72.5343 37.414 72.3543 37.15C72.1743 36.874 72.0843 36.61 72.0843 36.358C72.0843 36.25 72.1023 36.124 72.1383 35.98C72.1743 35.824 72.2283 35.686 72.3003 35.566C72.2163 35.386 72.0903 35.254 71.9223 35.17C71.7543 35.086 71.5803 35.032 71.4003 35.008C71.2323 34.972 71.0943 34.96 70.9863 34.972C70.4103 35.008 69.9363 35.296 69.5643 35.836C69.1923 36.376 69.0063 37.156 69.0063 38.176C69.0063 38.776 69.0783 39.34 69.2223 39.868C69.3783 40.384 69.6303 40.81 69.9783 41.146C70.3263 41.482 70.7943 41.662 71.3823 41.686C71.8863 41.698 72.3783 41.578 72.8583 41.326C73.3383 41.074 73.7463 40.732 74.0823 40.3L74.9103 41.11C74.4783 41.71 74.0283 42.166 73.5603 42.478C73.0923 42.79 72.6243 43 72.1563 43.108C71.7003 43.228 71.2503 43.288 70.8063 43.288ZM81.2387 41.83C81.5747 41.83 81.8147 41.764 81.9587 41.632C82.1147 41.5 82.2107 41.314 82.2467 41.074C82.2947 40.822 82.3187 40.54 82.3187 40.228L82.3007 37.672C82.2887 36.892 82.1687 36.316 81.9407 35.944C81.7127 35.56 81.3467 35.368 80.8427 35.368C80.5427 35.368 80.2427 35.434 79.9427 35.566C79.6547 35.698 79.4087 35.854 79.2047 36.034V40.102C79.2047 40.27 79.1987 40.51 79.1867 40.822C79.1747 41.122 79.1567 41.41 79.1327 41.686C79.3367 41.662 79.5527 41.65 79.7807 41.65C80.0087 41.638 80.1827 41.632 80.3027 41.632V43H75.5867V41.83C75.9227 41.83 76.1627 41.764 76.3067 41.632C76.4627 41.5 76.5587 41.314 76.5947 41.074C76.6307 40.822 76.6487 40.54 76.6487 40.228V32.83C76.6487 32.614 76.6547 32.368 76.6667 32.092C76.6787 31.804 76.6967 31.528 76.7207 31.264C76.5287 31.276 76.3007 31.288 76.0367 31.3C75.7847 31.3 75.5927 31.306 75.4607 31.318V29.95C76.0247 29.95 76.4927 29.92 76.8647 29.86C77.2487 29.8 77.5487 29.728 77.7647 29.644C77.9927 29.56 78.1487 29.482 78.2327 29.41H79.2047V34.72C79.4447 34.528 79.7207 34.36 80.0327 34.216C80.3447 34.06 80.6627 33.94 80.9867 33.856C81.3107 33.76 81.5927 33.712 81.8327 33.712C82.9367 33.712 83.7167 34.03 84.1727 34.666C84.6407 35.29 84.8747 36.298 84.8747 37.69V40.102C84.8747 40.27 84.8687 40.51 84.8567 40.822C84.8447 41.122 84.8267 41.41 84.8027 41.686C84.9947 41.662 85.2047 41.65 85.4327 41.65C85.6607 41.638 85.8407 41.632 85.9727 41.632V43H81.2387V41.83ZM95.3469 43.288C94.9869 43.288 94.6389 43.246 94.3029 43.162C93.9669 43.078 93.6669 42.922 93.4029 42.694C93.1389 42.454 92.9289 42.106 92.7729 41.65C92.6169 41.194 92.5389 40.588 92.5389 39.832L92.5749 35.494H91.3509V34C91.7229 33.988 92.0829 33.862 92.4309 33.622C92.7789 33.382 93.0729 33.07 93.3129 32.686C93.5649 32.302 93.7329 31.9 93.8169 31.48H95.1489L95.1309 34H97.4169V35.386L95.1309 35.44L95.1129 39.868C95.1129 40.144 95.1369 40.42 95.1849 40.696C95.2449 40.96 95.3529 41.182 95.5089 41.362C95.6649 41.53 95.8929 41.614 96.1929 41.614C96.3609 41.614 96.5889 41.554 96.8769 41.434C97.1769 41.314 97.4949 41.014 97.8309 40.534L98.6949 41.344C98.3709 41.824 98.0349 42.196 97.6869 42.46C97.3389 42.724 97.0029 42.916 96.6789 43.036C96.3669 43.156 96.0909 43.228 95.8509 43.252C95.6109 43.276 95.4429 43.288 95.3469 43.288ZM99.2185 41.83C99.5545 41.83 99.7945 41.764 99.9385 41.632C100.082 41.5 100.172 41.314 100.208 41.074C100.256 40.822 100.28 40.54 100.28 40.228V37.204C100.28 36.988 100.286 36.748 100.298 36.484C100.31 36.208 100.328 35.938 100.352 35.674C100.16 35.686 99.9325 35.698 99.6685 35.71C99.4165 35.71 99.2245 35.716 99.0925 35.728V34.36H99.8125C100.28 34.36 100.706 34.3 101.09 34.18C101.486 34.06 101.744 33.94 101.864 33.82H102.746C102.77 33.94 102.788 34.168 102.8 34.504C102.812 34.828 102.818 35.116 102.818 35.368C103.142 34.972 103.448 34.654 103.736 34.414C104.024 34.174 104.306 34 104.582 33.892C104.87 33.772 105.158 33.712 105.446 33.712C105.866 33.712 106.232 33.832 106.544 34.072C106.856 34.3 107.012 34.678 107.012 35.206C107.012 35.386 106.97 35.578 106.886 35.782C106.802 35.974 106.67 36.136 106.49 36.268C106.31 36.4 106.064 36.466 105.752 36.466C105.512 36.466 105.266 36.394 105.014 36.25C104.762 36.106 104.618 35.83 104.582 35.422C104.342 35.422 104.102 35.524 103.862 35.728C103.622 35.92 103.406 36.154 103.214 36.43C103.034 36.694 102.908 36.94 102.836 37.168V40.102C102.836 40.27 102.83 40.51 102.818 40.822C102.806 41.122 102.788 41.41 102.764 41.686C102.956 41.662 103.166 41.65 103.394 41.65C103.634 41.638 103.814 41.632 103.934 41.632V43H99.2185V41.83ZM112.783 43C112.759 42.832 112.741 42.694 112.729 42.586C112.729 42.466 112.723 42.328 112.711 42.172C112.303 42.58 111.871 42.868 111.415 43.036C110.959 43.204 110.497 43.288 110.029 43.288C109.261 43.288 108.661 43.06 108.229 42.604C107.797 42.148 107.581 41.578 107.581 40.894C107.581 40.318 107.725 39.826 108.013 39.418C108.313 39.01 108.703 38.68 109.183 38.428C109.675 38.164 110.215 37.966 110.803 37.834C111.403 37.69 112.003 37.606 112.603 37.582V36.646C112.603 36.334 112.561 36.052 112.477 35.8C112.405 35.548 112.273 35.35 112.081 35.206C111.901 35.062 111.643 34.996 111.307 35.008C111.079 35.02 110.857 35.068 110.641 35.152C110.425 35.236 110.239 35.356 110.083 35.512C110.179 35.62 110.239 35.74 110.263 35.872C110.287 35.992 110.299 36.1 110.299 36.196C110.299 36.436 110.203 36.688 110.011 36.952C109.819 37.204 109.513 37.324 109.093 37.312C108.733 37.3 108.457 37.174 108.265 36.934C108.073 36.694 107.977 36.412 107.977 36.088C107.977 35.608 108.145 35.194 108.481 34.846C108.829 34.486 109.291 34.21 109.867 34.018C110.443 33.814 111.079 33.712 111.775 33.712C112.831 33.712 113.647 33.988 114.223 34.54C114.811 35.08 115.105 35.95 115.105 37.15C115.105 37.558 115.105 37.906 115.105 38.194C115.105 38.482 115.099 38.77 115.087 39.058C115.087 39.346 115.087 39.694 115.087 40.102C115.087 40.27 115.081 40.51 115.069 40.822C115.057 41.122 115.039 41.41 115.015 41.686C115.219 41.662 115.435 41.65 115.663 41.65C115.891 41.638 116.065 41.632 116.185 41.632V43H112.783ZM112.585 38.86C112.249 38.896 111.931 38.956 111.631 39.04C111.331 39.124 111.067 39.238 110.839 39.382C110.623 39.526 110.449 39.7 110.317 39.904C110.197 40.108 110.137 40.336 110.137 40.588C110.149 40.924 110.257 41.164 110.461 41.308C110.665 41.452 110.899 41.524 111.163 41.524C111.439 41.524 111.697 41.464 111.937 41.344C112.177 41.224 112.393 41.068 112.585 40.876C112.585 40.756 112.585 40.642 112.585 40.534C112.585 40.414 112.585 40.294 112.585 40.174C112.585 39.958 112.585 39.742 112.585 39.526C112.585 39.298 112.585 39.076 112.585 38.86ZM117.218 41.83C117.554 41.83 117.794 41.764 117.938 41.632C118.082 41.5 118.172 41.314 118.208 41.074C118.256 40.822 118.28 40.54 118.28 40.228V37.24C118.28 37.024 118.286 36.778 118.298 36.502C118.31 36.214 118.328 35.938 118.352 35.674C118.16 35.686 117.932 35.698 117.668 35.71C117.416 35.71 117.224 35.716 117.092 35.728V34.36C117.644 34.36 118.112 34.33 118.496 34.27C118.88 34.21 119.18 34.138 119.396 34.054C119.624 33.97 119.78 33.892 119.864 33.82H120.836V40.102C120.836 40.27 120.83 40.51 120.818 40.822C120.806 41.122 120.788 41.41 120.764 41.686C120.956 41.662 121.166 41.65 121.394 41.65C121.634 41.638 121.814 41.632 121.934 41.632V43H117.218V41.83ZM119.468 32.398C119.06 32.398 118.724 32.254 118.46 31.966C118.196 31.678 118.064 31.33 118.064 30.922C118.064 30.514 118.202 30.166 118.478 29.878C118.754 29.59 119.078 29.446 119.45 29.446C119.834 29.446 120.152 29.59 120.404 29.878C120.668 30.166 120.8 30.514 120.8 30.922C120.8 31.33 120.68 31.678 120.44 31.966C120.2 32.254 119.876 32.398 119.468 32.398ZM122.819 41.83C123.155 41.83 123.395 41.764 123.539 41.632C123.695 41.5 123.791 41.314 123.827 41.074C123.863 40.822 123.881 40.54 123.881 40.228V32.83C123.881 32.614 123.887 32.368 123.899 32.092C123.911 31.804 123.929 31.528 123.953 31.264C123.761 31.276 123.533 31.288 123.269 31.3C123.017 31.3 122.825 31.306 122.693 31.318V29.95C123.257 29.95 123.725 29.92 124.097 29.86C124.481 29.8 124.781 29.728 124.997 29.644C125.225 29.56 125.381 29.482 125.465 29.41H126.437V40.102C126.437 40.27 126.431 40.51 126.419 40.822C126.407 41.122 126.389 41.41 126.365 41.686C126.569 41.662 126.785 41.65 127.013 41.65C127.241 41.638 127.415 41.632 127.535 41.632V43H122.819V41.83ZM132.981 43.288C132.105 43.288 131.331 43.096 130.659 42.712C129.987 42.316 129.465 41.764 129.093 41.056C128.721 40.336 128.535 39.49 128.535 38.518C128.535 37.678 128.721 36.892 129.093 36.16C129.465 35.428 129.987 34.84 130.659 34.396C131.343 33.94 132.135 33.712 133.035 33.712C133.539 33.712 134.031 33.784 134.511 33.928C134.991 34.06 135.423 34.294 135.807 34.63C136.203 34.966 136.515 35.422 136.743 35.998C136.983 36.574 137.097 37.294 137.085 38.158L131.181 38.266C131.181 38.914 131.259 39.496 131.415 40.012C131.583 40.528 131.853 40.936 132.225 41.236C132.597 41.536 133.095 41.686 133.719 41.686C133.959 41.686 134.229 41.644 134.529 41.56C134.841 41.476 135.153 41.338 135.465 41.146C135.789 40.942 136.089 40.672 136.365 40.336L137.175 41.092C136.743 41.704 136.281 42.172 135.789 42.496C135.297 42.808 134.805 43.018 134.313 43.126C133.833 43.234 133.389 43.288 132.981 43.288ZM131.289 37.006H134.601C134.589 36.502 134.517 36.106 134.385 35.818C134.265 35.518 134.097 35.302 133.881 35.17C133.665 35.038 133.413 34.972 133.125 34.972C132.597 34.972 132.183 35.164 131.883 35.548C131.583 35.92 131.385 36.406 131.289 37.006ZM138.4 41.83C138.736 41.83 138.976 41.764 139.12 41.632C139.264 41.5 139.354 41.314 139.39 41.074C139.438 40.822 139.462 40.54 139.462 40.228V37.204C139.462 36.988 139.468 36.748 139.48 36.484C139.492 36.208 139.51 35.938 139.534 35.674C139.342 35.686 139.114 35.698 138.85 35.71C138.598 35.71 138.406 35.716 138.274 35.728V34.36H138.994C139.462 34.36 139.888 34.3 140.272 34.18C140.668 34.06 140.926 33.94 141.046 33.82H141.928C141.952 33.94 141.97 34.168 141.982 34.504C141.994 34.828 142 35.116 142 35.368C142.324 34.972 142.63 34.654 142.918 34.414C143.206 34.174 143.488 34 143.764 33.892C144.052 33.772 144.34 33.712 144.628 33.712C145.048 33.712 145.414 33.832 145.726 34.072C146.038 34.3 146.194 34.678 146.194 35.206C146.194 35.386 146.152 35.578 146.068 35.782C145.984 35.974 145.852 36.136 145.672 36.268C145.492 36.4 145.246 36.466 144.934 36.466C144.694 36.466 144.448 36.394 144.196 36.25C143.944 36.106 143.8 35.83 143.764 35.422C143.524 35.422 143.284 35.524 143.044 35.728C142.804 35.92 142.588 36.154 142.396 36.43C142.216 36.694 142.09 36.94 142.018 37.168V40.102C142.018 40.27 142.012 40.51 142 40.822C141.988 41.122 141.97 41.41 141.946 41.686C142.138 41.662 142.348 41.65 142.576 41.65C142.816 41.638 142.996 41.632 143.116 41.632V43H138.4V41.83Z" fill="#FAE8C8"/>
</g>
<defs>
<filter id="filter0_di_28_54" x="0" y="0" width="179" height="72" filterUnits="userSpaceOnUse" color-interpolation-filters="sRGB">
<feFlood flood-opacity="0" result="BackgroundImageFix"/>
<feColorMatrix in="SourceAlpha" type="matrix" values="0 0 0 0 0 0 0 0 0 0 0 0 0 0 0 0 0 0 127 0" result="hardAlpha"/>
<feOffset/>
<feGaussianBlur stdDeviation="4"/>
<feColorMatrix type="matrix" values="0 0 0 0 1 0 0 0 0 0.698039 0 0 0 0 0 0 0 0 1 0"/>
<feBlend mode="normal" in2="BackgroundImageFix" result="effect1_dropShadow_28_54"/>
<feBlend mode="normal" in="SourceGraphic" in2="effect1_dropShadow_28_54" result="shape"/>
<feColorMatrix in="SourceAlpha" type="matrix" values="0 0 0 0 0 0 0 0 0 0 0 0 0 0 0 0 0 0 127 0" result="hardAlpha"/>
<feOffset/>
<feGaussianBlur stdDeviation="4"/>
<feComposite in2="hardAlpha" operator="arithmetic" k2="-1" k3="1"/>
<feColorMatrix type="matrix" values="0 0 0 0 0.6 0 0 0 0 0.419608 0 0 0 0 0 0 0 0 1 0"/>
<feBlend mode="normal" in2="shape" result="effect2_innerShadow_28_54"/>
</filter>
</defs>
</svg>
