<svg width="176" height="72" viewBox="0 0 176 72" fill="none" xmlns="http://www.w3.org/2000/svg">
<g filter="url(#filter0_di_28_68)">
<rect x="8" y="8" width="160" height="56" rx="12" fill="#513800"/>
<path d="M65.172 34.432C65.064 33.76 64.872 33.202 64.596 32.758C64.32 32.302 63.966 31.96 63.534 31.732C63.114 31.504 62.622 31.396 62.058 31.408C61.542 31.408 61.086 31.552 60.69 31.84C60.306 32.128 60.114 32.5 60.114 32.956C60.114 33.328 60.216 33.652 60.42 33.928C60.636 34.204 60.96 34.462 61.392 34.702C61.824 34.942 62.37 35.2 63.03 35.476C63.486 35.656 63.954 35.866 64.434 36.106C64.914 36.346 65.358 36.634 65.766 36.97C66.174 37.294 66.504 37.678 66.756 38.122C67.008 38.554 67.134 39.064 67.134 39.652C67.134 40.36 66.942 40.99 66.558 41.542C66.174 42.094 65.634 42.526 64.938 42.838C64.254 43.138 63.45 43.288 62.526 43.288C62.046 43.288 61.524 43.21 60.96 43.054C60.408 42.91 59.886 42.694 59.394 42.406L59.448 43.162H58.062V38.95H59.25C59.418 39.958 59.802 40.72 60.402 41.236C61.014 41.74 61.74 41.992 62.58 41.992C63.012 41.992 63.39 41.914 63.714 41.758C64.038 41.602 64.29 41.398 64.47 41.146C64.65 40.882 64.74 40.6 64.74 40.3C64.74 39.88 64.59 39.532 64.29 39.256C64.002 38.98 63.636 38.746 63.192 38.554C62.76 38.362 62.316 38.176 61.86 37.996C61.284 37.756 60.744 37.504 60.24 37.24C59.748 36.964 59.316 36.652 58.944 36.304C58.572 35.956 58.284 35.56 58.08 35.116C57.876 34.66 57.774 34.138 57.774 33.55C57.774 33.178 57.846 32.794 57.99 32.398C58.134 31.99 58.368 31.618 58.692 31.282C59.016 30.934 59.448 30.652 59.988 30.436C60.528 30.22 61.194 30.112 61.986 30.112C62.466 30.112 62.988 30.184 63.552 30.328C64.128 30.472 64.62 30.688 65.028 30.976L64.956 30.238H66.36V34.432H65.172ZM72.0812 43.288C71.3612 43.288 70.7792 43.15 70.3352 42.874C69.9032 42.598 69.5852 42.166 69.3812 41.578C69.1892 40.99 69.0932 40.234 69.0932 39.31V37.24C69.0932 37.024 69.0992 36.778 69.1112 36.502C69.1232 36.214 69.1352 35.938 69.1472 35.674C68.9552 35.686 68.7272 35.698 68.4632 35.71C68.2112 35.71 68.0192 35.716 67.8872 35.728V34.36H68.0672C68.8112 34.36 69.3992 34.3 69.8312 34.18C70.2632 34.06 70.5392 33.94 70.6592 33.82H71.6492V39.328C71.6492 40.108 71.7512 40.69 71.9552 41.074C72.1592 41.446 72.4832 41.632 72.9272 41.632C73.2392 41.632 73.5512 41.548 73.8632 41.38C74.1872 41.2 74.4512 40.996 74.6552 40.768V37.24C74.6552 37.024 74.6612 36.778 74.6732 36.502C74.6852 36.214 74.7032 35.938 74.7272 35.674C74.5352 35.686 74.3072 35.698 74.0432 35.71C73.7912 35.71 73.5992 35.716 73.4672 35.728V34.36H73.8992C74.4632 34.36 74.9612 34.3 75.3932 34.18C75.8252 34.048 76.1012 33.928 76.2212 33.82H77.2112V40.102C77.2112 40.27 77.2052 40.51 77.1932 40.822C77.1812 41.122 77.1632 41.41 77.1392 41.686C77.3312 41.662 77.5412 41.65 77.7692 41.65C78.0092 41.638 78.1892 41.632 78.3092 41.632V43H74.8892C74.8772 42.844 74.8592 42.688 74.8352 42.532C74.8232 42.376 74.8052 42.22 74.7812 42.064C74.4092 42.376 74.0072 42.658 73.5752 42.91C73.1552 43.162 72.6572 43.288 72.0812 43.288ZM79.8781 32.83C79.8781 32.614 79.8781 32.368 79.8781 32.092C79.8901 31.804 79.9081 31.528 79.9321 31.264C79.7401 31.276 79.5121 31.288 79.2481 31.3C78.9961 31.3 78.8041 31.306 78.6721 31.318V29.95C79.2361 29.95 79.7041 29.92 80.0761 29.86C80.4601 29.8 80.7601 29.728 80.9761 29.644C81.2041 29.56 81.3601 29.482 81.4441 29.41H82.4161V34.684C82.8241 34.324 83.2381 34.072 83.6581 33.928C84.0781 33.784 84.4741 33.712 84.8461 33.712C85.5661 33.712 86.1961 33.898 86.7361 34.27C87.2881 34.642 87.7141 35.17 88.0141 35.854C88.3261 36.538 88.4821 37.342 88.4821 38.266C88.4821 39.226 88.3021 40.09 87.9421 40.858C87.5941 41.614 87.0961 42.208 86.4481 42.64C85.8001 43.072 85.0201 43.288 84.1081 43.288C83.7841 43.288 83.3701 43.216 82.8661 43.072C82.3741 42.94 81.9181 42.652 81.4981 42.208L80.9581 43H79.8781V32.83ZM82.4161 40.3C82.4161 40.708 82.4821 41.032 82.6141 41.272C82.7461 41.512 82.9141 41.686 83.1181 41.794C83.3221 41.902 83.5261 41.962 83.7301 41.974C84.2701 41.986 84.6901 41.83 84.9901 41.506C85.3021 41.182 85.5181 40.756 85.6381 40.228C85.7701 39.688 85.8361 39.124 85.8361 38.536C85.8361 37.984 85.7701 37.462 85.6381 36.97C85.5061 36.478 85.2961 36.082 85.0081 35.782C84.7201 35.47 84.3421 35.32 83.8741 35.332C83.5741 35.344 83.2981 35.422 83.0461 35.566C82.7941 35.698 82.5841 35.878 82.4161 36.106V40.3ZM89.8005 43V41.83C90.1365 41.83 90.3765 41.764 90.5205 41.632C90.6645 41.5 90.7545 41.314 90.7905 41.074C90.8385 40.822 90.8625 40.54 90.8625 40.228V37.204C90.8625 36.988 90.8685 36.748 90.8805 36.484C90.8925 36.208 90.9105 35.938 90.9345 35.674C90.7425 35.686 90.5145 35.698 90.2505 35.71C89.9985 35.71 89.8065 35.716 89.6745 35.728V34.36C90.2265 34.36 90.6945 34.33 91.0785 34.27C91.4625 34.21 91.7625 34.138 91.9785 34.054C92.2065 33.97 92.3625 33.892 92.4465 33.82H93.3285C93.3525 33.94 93.3645 34.09 93.3645 34.27C93.3765 34.45 93.3885 34.6 93.4005 34.72C93.8085 34.408 94.2465 34.162 94.7145 33.982C95.1945 33.802 95.6445 33.712 96.0645 33.712C96.6165 33.712 97.0725 33.814 97.4325 34.018C97.7925 34.21 98.0805 34.504 98.2965 34.9C98.7285 34.54 99.2025 34.252 99.7185 34.036C100.247 33.82 100.751 33.712 101.231 33.712C102.203 33.712 102.935 33.994 103.427 34.558C103.931 35.11 104.183 36.076 104.183 37.456V40.102C104.183 40.27 104.177 40.51 104.165 40.822C104.153 41.122 104.135 41.41 104.111 41.686C104.303 41.662 104.513 41.65 104.741 41.65C104.981 41.638 105.161 41.632 105.281 41.632V43H100.727V41.83C101.003 41.83 101.201 41.764 101.321 41.632C101.453 41.5 101.537 41.314 101.573 41.074C101.609 40.822 101.627 40.54 101.627 40.228V37.474C101.615 36.694 101.483 36.154 101.231 35.854C100.991 35.554 100.667 35.398 100.259 35.386C99.9465 35.374 99.6525 35.428 99.3765 35.548C99.1125 35.668 98.8725 35.812 98.6565 35.98C98.7165 36.22 98.7585 36.484 98.7825 36.772C98.8065 37.06 98.8185 37.366 98.8185 37.69C98.8185 38.098 98.8185 38.5 98.8185 38.896C98.8185 39.292 98.8185 39.694 98.8185 40.102C98.8185 40.27 98.8125 40.51 98.8005 40.822C98.7885 41.122 98.7705 41.41 98.7465 41.686C98.9385 41.662 99.1485 41.65 99.3765 41.65C99.6045 41.638 99.7845 41.632 99.9165 41.632V43H95.2725V41.83C95.5845 41.83 95.8065 41.764 95.9385 41.632C96.0825 41.5 96.1725 41.314 96.2085 41.074C96.2445 40.822 96.2625 40.54 96.2625 40.228L96.2445 37.42C96.2445 36.64 96.1305 36.106 95.9025 35.818C95.6745 35.53 95.3565 35.38 94.9485 35.368C94.6485 35.368 94.3665 35.434 94.1025 35.566C93.8505 35.698 93.6225 35.854 93.4185 36.034C93.4185 36.19 93.4185 36.34 93.4185 36.484C93.4185 36.628 93.4185 36.778 93.4185 36.934V40.102C93.4185 40.27 93.4125 40.51 93.4005 40.822C93.3885 41.122 93.3705 41.41 93.3465 41.686C93.5385 41.662 93.7365 41.65 93.9405 41.65C94.1445 41.638 94.3065 41.632 94.4265 41.632V43H89.8005ZM106.359 41.83C106.695 41.83 106.935 41.764 107.079 41.632C107.223 41.5 107.313 41.314 107.349 41.074C107.397 40.822 107.421 40.54 107.421 40.228V37.24C107.421 37.024 107.427 36.778 107.439 36.502C107.451 36.214 107.469 35.938 107.493 35.674C107.301 35.686 107.073 35.698 106.809 35.71C106.557 35.71 106.365 35.716 106.233 35.728V34.36C106.785 34.36 107.253 34.33 107.637 34.27C108.021 34.21 108.321 34.138 108.537 34.054C108.765 33.97 108.921 33.892 109.005 33.82H109.977V40.102C109.977 40.27 109.971 40.51 109.959 40.822C109.947 41.122 109.929 41.41 109.905 41.686C110.097 41.662 110.307 41.65 110.535 41.65C110.775 41.638 110.955 41.632 111.075 41.632V43H106.359V41.83ZM108.609 32.398C108.201 32.398 107.865 32.254 107.601 31.966C107.337 31.678 107.205 31.33 107.205 30.922C107.205 30.514 107.343 30.166 107.619 29.878C107.895 29.59 108.219 29.446 108.591 29.446C108.975 29.446 109.293 29.59 109.545 29.878C109.809 30.166 109.941 30.514 109.941 30.922C109.941 31.33 109.821 31.678 109.581 31.966C109.341 32.254 109.017 32.398 108.609 32.398ZM115.741 43.288C115.381 43.288 115.033 43.246 114.697 43.162C114.361 43.078 114.061 42.922 113.797 42.694C113.533 42.454 113.323 42.106 113.167 41.65C113.011 41.194 112.933 40.588 112.933 39.832L112.969 35.494H111.745V34C112.117 33.988 112.477 33.862 112.825 33.622C113.173 33.382 113.467 33.07 113.707 32.686C113.959 32.302 114.127 31.9 114.211 31.48H115.543L115.525 34H117.811V35.386L115.525 35.44L115.507 39.868C115.507 40.144 115.531 40.42 115.579 40.696C115.639 40.96 115.747 41.182 115.903 41.362C116.059 41.53 116.287 41.614 116.587 41.614C116.755 41.614 116.983 41.554 117.271 41.434C117.571 41.314 117.889 41.014 118.225 40.534L119.089 41.344C118.765 41.824 118.429 42.196 118.081 42.46C117.733 42.724 117.397 42.916 117.073 43.036C116.761 43.156 116.485 43.228 116.245 43.252C116.005 43.276 115.837 43.288 115.741 43.288Z" fill="#FAE8C8"/>
</g>
<defs>
<filter id="filter0_di_28_68" x="0" y="0" width="176" height="72" filterUnits="userSpaceOnUse" color-interpolation-filters="sRGB">
<feFlood flood-opacity="0" result="BackgroundImageFix"/>
<feColorMatrix in="SourceAlpha" type="matrix" values="0 0 0 0 0 0 0 0 0 0 0 0 0 0 0 0 0 0 127 0" result="hardAlpha"/>
<feOffset/>
<feGaussianBlur stdDeviation="4"/>
<feColorMatrix type="matrix" values="0 0 0 0 1 0 0 0 0 0.698039 0 0 0 0 0 0 0 0 1 0"/>
<feBlend mode="normal" in2="BackgroundImageFix" result="effect1_dropShadow_28_68"/>
<feBlend mode="normal" in="SourceGraphic" in2="effect1_dropShadow_28_68" result="shape"/>
<feColorMatrix in="SourceAlpha" type="matrix" values="0 0 0 0 0 0 0 0 0 0 0 0 0 0 0 0 0 0 127 0" result="hardAlpha"/>
<feOffset/>
<feGaussianBlur stdDeviation="4"/>
<feComposite in2="hardAlpha" operator="arithmetic" k2="-1" k3="1"/>
<feColorMatrix type="matrix" values="0 0 0 0 0.6 0 0 0 0 0.419608 0 0 0 0 0 0 0 0 1 0"/>
<feBlend mode="normal" in2="shape" result="effect2_innerShadow_28_68"/>
</filter>
</defs>
</svg>
