<svg width="60" height="60" viewBox="0 0 60 60" fill="none" xmlns="http://www.w3.org/2000/svg">
<g filter="url(#filter0_di_86_1704)">
<rect x="8" y="8" width="44" height="44" rx="6" fill="black"/>
<path d="M21.666 29.9998C21.666 29.5396 22.0391 29.1665 22.4993 29.1665H37.4993C37.9596 29.1665 38.3327 29.5396 38.3327 29.9998C38.3327 30.4601 37.9596 30.8332 37.4993 30.8332H22.4993C22.0391 30.8332 21.666 30.4601 21.666 29.9998Z" fill="#FAE8C8"/>
<path d="M21.666 24.9998C21.666 24.5396 22.0391 24.1665 22.4993 24.1665H37.4993C37.9596 24.1665 38.3327 24.5396 38.3327 24.9998C38.3327 25.4601 37.9596 25.8332 37.4993 25.8332H22.4993C22.0391 25.8332 21.666 25.4601 21.666 24.9998Z" fill="#FAE8C8"/>
<path d="M22.4993 34.1665C22.0391 34.1665 21.666 34.5396 21.666 34.9998C21.666 35.4601 22.0391 35.8332 22.4993 35.8332H37.4993C37.9596 35.8332 38.3327 35.4601 38.3327 34.9998C38.3327 34.5396 37.9596 34.1665 37.4993 34.1665H22.4993Z" fill="#FAE8C8"/>
</g>
<defs>
<filter id="filter0_di_86_1704" x="0" y="0" width="60" height="60" filterUnits="userSpaceOnUse" color-interpolation-filters="sRGB">
<feFlood flood-opacity="0" result="BackgroundImageFix"/>
<feColorMatrix in="SourceAlpha" type="matrix" values="0 0 0 0 0 0 0 0 0 0 0 0 0 0 0 0 0 0 127 0" result="hardAlpha"/>
<feOffset/>
<feGaussianBlur stdDeviation="4"/>
<feColorMatrix type="matrix" values="0 0 0 0 1 0 0 0 0 0.698039 0 0 0 0 0 0 0 0 1 0"/>
<feBlend mode="normal" in2="BackgroundImageFix" result="effect1_dropShadow_86_1704"/>
<feBlend mode="normal" in="SourceGraphic" in2="effect1_dropShadow_86_1704" result="shape"/>
<feColorMatrix in="SourceAlpha" type="matrix" values="0 0 0 0 0 0 0 0 0 0 0 0 0 0 0 0 0 0 127 0" result="hardAlpha"/>
<feOffset/>
<feGaussianBlur stdDeviation="4"/>
<feComposite in2="hardAlpha" operator="arithmetic" k2="-1" k3="1"/>
<feColorMatrix type="matrix" values="0 0 0 0 0.6 0 0 0 0 0.419608 0 0 0 0 0 0 0 0 1 0"/>
<feBlend mode="normal" in2="shape" result="effect2_innerShadow_86_1704"/>
</filter>
</defs>
</svg>
